<?xml version="1.0" standalone="no"?>
<!DOCTYPE svg PUBLIC "-//W3C//DTD SVG 20010904//EN"
 "http://www.w3.org/TR/2001/REC-SVG-20010904/DTD/svg10.dtd">
<svg version="1.0" xmlns="http://www.w3.org/2000/svg"
 width="1024.000000pt" height="1024.000000pt" viewBox="0 0 1024.000000 1024.000000"
 preserveAspectRatio="xMidYMid meet">
<metadata>
Created by potrace 1.16, written by Peter Selinger 2001-2019
</metadata>
<g transform="translate(0.000000,1024.000000) scale(0.100000,-0.100000)"
fill="#ffffff" stroke="none">
<path d="M4840 9413 c-700 -51 -1305 -243 -1869 -593 -265 -164 -455 -314
-689 -544 -537 -527 -898 -1152 -1093 -1894 -46 -175 -42 -155 -69 -315 -70
-421 -79 -899 -24 -1302 126 -923 526 -1731 1178 -2380 621 -618 1424 -1022
2271 -1144 1286 -185 2527 240 3460 1184 578 584 963 1333 1109 2155 40 228
56 396 63 655 9 393 -17 656 -112 1105 -16 75 -107 364 -152 480 -223 580
-518 1028 -969 1472 -666 654 -1521 1038 -2487 1117 -116 10 -505 12 -617 4z
m780 -172 c652 -89 1234 -311 1741 -667 189 -133 320 -244 504 -428 332 -333
569 -661 764 -1061 204 -416 311 -784 383 -1315 20 -152 17 -710 -5 -890 -81
-649 -278 -1206 -604 -1707 -82 -127 -205 -295 -287 -393 -104 -124 -347 -371
-359 -363 -5 3 -7 1 -3 -5 13 -21 -303 -278 -513 -416 -238 -157 -409 -248
-655 -351 -509 -211 -963 -294 -1550 -282 -595 13 -1060 125 -1601 386 -408
197 -764 458 -1111 813 -645 661 -1024 1501 -1104 2453 -21 258 -9 634 30 896
123 839 492 1589 1075 2187 301 309 617 546 980 733 454 234 913 370 1430 424
207 21 679 13 885 -14z"/>
<path d="M4897 9080 c-1195 -78 -2233 -673 -2881 -1650 -223 -336 -367 -647
-477 -1030 -164 -575 -192 -1220 -78 -1810 181 -938 726 -1792 1495 -2340 336
-240 761 -447 1136 -556 1070 -308 2138 -146 3064 466 484 320 858 715 1171
1234 686 1141 699 2669 31 3821 -380 656 -951 1190 -1601 1500 -395 188 -799
304 -1217 350 -173 18 -479 26 -643 15z m643 -145 c699 -78 1378 -370 1910
-821 254 -214 531 -532 709 -812 477 -748 665 -1661 525 -2551 -152 -974 -700
-1861 -1492 -2418 -578 -406 -1198 -625 -1877 -662 -611 -34 -1244 104 -1815
395 -316 161 -559 332 -834 587 -527 490 -902 1150 -1066 1874 -106 469 -113
1033 -19 1513 161 826 589 1558 1221 2085 484 405 1071 674 1700 779 128 22
197 30 438 50 90 8 468 -4 600 -19z"/>
<path d="M4590 8505 c0 -106 61 -236 151 -319 l56 -52 -37 -32 c-95 -79 -160
-227 -161 -361 -1 -96 14 -158 60 -246 64 -125 177 -215 324 -261 l57 -18 0
-203 0 -204 -47 6 c-155 22 -269 59 -378 123 -146 86 -245 190 -352 368 -82
138 -164 202 -302 234 -65 15 -185 8 -256 -16 -27 -9 -241 -109 -475 -222
-644 -310 -784 -368 -993 -416 l-98 -22 21 -26 c11 -15 46 -39 78 -55 143 -70
305 -22 907 272 655 319 605 298 715 299 132 0 166 -23 293 -204 207 -295 447
-443 796 -490 l91 -13 0 -848 c0 -673 3 -849 13 -849 6 0 42 8 80 17 l67 17 0
838 0 838 44 0 c61 0 206 27 279 51 246 83 411 214 581 461 78 113 122 153
190 173 120 36 187 15 568 -177 156 -78 288 -143 293 -144 6 -1 82 -36 170
-77 306 -142 495 -204 589 -192 66 8 114 29 154 67 37 36 40 48 13 48 -34 0
-205 47 -306 85 -145 54 -359 152 -785 360 -207 101 -405 194 -440 206 -93 32
-251 33 -333 0 -96 -38 -145 -86 -250 -243 -146 -221 -287 -344 -472 -413 -78
-30 -196 -55 -256 -55 l-39 0 0 205 0 204 43 11 c131 35 264 140 325 256 111
213 75 446 -96 611 l-45 44 24 16 c99 68 189 234 189 350 l0 33 -85 0 c-84 0
-85 0 -85 -25 0 -45 -41 -134 -85 -182 -24 -27 -69 -62 -102 -78 -53 -28 -66
-30 -163 -30 -99 0 -110 2 -172 33 -99 49 -165 135 -183 240 l-7 42 -84 0 -84
0 0 -35z m657 -447 c71 -26 155 -104 190 -176 24 -50 28 -69 28 -147 0 -77 -4
-98 -27 -147 -35 -76 -98 -142 -167 -175 -49 -24 -68 -28 -146 -28 -76 0 -99
5 -147 27 -76 35 -140 96 -174 166 -25 50 -29 68 -29 152 0 117 19 166 98 244
112 112 230 138 374 84z"/>
<path d="M3780 7221 c-66 -22 -125 -50 -560 -261 -376 -183 -547 -259 -635
-285 l-60 -17 30 -24 c33 -27 161 -92 197 -100 140 -31 238 -26 351 16 30 11
161 80 293 154 241 134 646 365 653 371 7 7 -74 119 -99 137 -38 27 -106 31
-170 9z"/>
<path d="M6315 7222 c-41 -19 -78 -60 -109 -119 -20 -39 -67 -8 379 -258 445
-249 550 -301 645 -321 151 -32 313 5 463 104 l38 26 -118 41 c-149 53 -210
80 -683 307 -212 102 -408 195 -437 207 -77 31 -130 35 -178 13z"/>
<path d="M3750 6753 c-201 -113 -424 -236 -497 -273 l-132 -68 57 -30 c127
-68 271 -81 409 -37 102 32 148 62 442 291 l242 188 -68 68 c-37 37 -72 68
-78 67 -5 0 -174 -93 -375 -206z"/>
<path d="M6031 6888 c-35 -38 -59 -73 -55 -77 8 -7 286 -220 449 -343 217
-165 427 -193 637 -87 l61 31 -79 37 c-70 34 -512 274 -823 447 -62 35 -116
64 -120 63 -3 -1 -35 -32 -70 -71z"/>
<path d="M4084 6524 c-159 -119 -309 -228 -334 -242 l-45 -27 55 -13 c154 -36
307 -23 410 35 40 22 370 346 370 363 0 3 -19 16 -42 27 -24 12 -61 33 -84 47
l-41 25 -289 -215z"/>
<path d="M5811 6711 c-24 -16 -61 -37 -82 -47 -22 -9 -39 -23 -39 -30 0 -7 71
-85 158 -172 175 -176 228 -212 346 -233 76 -13 200 -7 278 14 l48 12 -68 46
c-37 25 -184 133 -327 240 -143 107 -262 195 -265 196 -3 2 -25 -10 -49 -26z"/>
<path d="M4492 6414 l-173 -184 98 0 c154 1 268 50 368 161 35 40 95 126 95
139 0 4 -35 14 -77 24 -43 10 -92 24 -108 31 l-31 12 -172 -183z"/>
<path d="M5520 6579 c-14 -6 -60 -18 -103 -28 l-78 -17 39 -59 c45 -69 127
-150 192 -188 64 -37 151 -57 250 -57 l86 0 -70 73 c-39 39 -118 120 -175 180
-57 59 -107 107 -110 106 -3 0 -17 -5 -31 -10z"/>
<path d="M4148 5940 c-62 -16 -150 -65 -205 -114 -104 -94 -153 -207 -153
-355 0 -132 36 -233 120 -339 101 -128 327 -258 646 -371 l91 -33 91 55 c50
30 112 63 137 73 24 11 45 21 45 24 0 3 -42 18 -94 34 -139 42 -389 145 -497
204 -208 116 -295 206 -306 318 -7 67 16 133 58 169 62 52 143 30 361 -98 154
-91 274 -119 353 -81 55 26 53 44 -6 44 -49 0 -148 28 -239 68 l-45 20 85 -3
c47 -2 117 -7 156 -11 65 -5 74 -4 93 15 28 28 28 89 0 125 -12 15 -54 49 -93
75 -39 26 -101 68 -137 93 -98 67 -171 89 -309 94 -63 2 -132 -1 -152 -6z"/>
<path d="M5803 5935 c-85 -23 -114 -38 -244 -128 -155 -106 -171 -123 -176
-184 -4 -39 -1 -51 16 -67 19 -17 28 -18 113 -8 102 12 226 16 217 8 -18 -18
-242 -88 -285 -89 -60 -2 -62 -16 -7 -42 57 -27 136 -15 246 36 51 24 94 47
97 51 3 4 54 32 113 63 90 46 115 55 159 55 100 0 158 -65 158 -177 0 -76 -32
-144 -97 -209 -133 -133 -339 -226 -743 -334 -343 -92 -522 -166 -673 -279
-86 -64 -142 -132 -174 -212 -32 -79 -38 -140 -23 -228 24 -142 111 -268 253
-366 53 -36 60 -38 80 -25 12 7 55 33 95 56 l73 41 -84 56 c-175 117 -240 233
-202 363 13 47 28 69 78 119 107 105 210 148 658 270 474 130 667 215 830 370
105 100 158 213 166 361 5 75 2 104 -15 161 -50 163 -186 297 -346 339 -65 18
-216 17 -283 -1z"/>
<path d="M5396 4584 c-115 -33 -144 -44 -117 -44 21 0 125 -76 165 -120 49
-54 66 -96 66 -164 0 -79 -27 -150 -78 -208 -59 -65 -127 -110 -322 -213 -200
-105 -261 -146 -332 -224 -84 -90 -119 -198 -99 -307 17 -91 61 -174 134 -250
l65 -69 44 41 c24 23 53 46 63 51 17 10 14 16 -33 69 -76 84 -95 130 -90 209
7 118 65 170 348 320 210 111 315 180 380 251 172 189 170 443 -4 632 -32 34
-61 62 -65 62 -3 -1 -60 -17 -125 -36z"/>
<path d="M5118 4488 l-78 -29 0 -270 c0 -148 3 -269 6 -269 14 0 146 74 150
84 2 6 3 125 2 263 l-3 251 -77 -30z"/>
<path d="M5330 3633 c-36 -19 -76 -42 -89 -50 l-23 -15 56 -50 c70 -62 89 -97
89 -165 0 -115 -73 -204 -266 -320 -130 -78 -179 -124 -216 -202 -23 -50 -26
-68 -26 -171 0 -112 1 -117 36 -190 20 -41 44 -84 54 -95 16 -19 16 -18 10 25
-17 130 -17 237 -2 291 26 87 70 128 246 232 234 137 316 230 344 390 19 111
-26 238 -115 324 l-33 32 -65 -36z"/>
<path d="M5118 3513 l-78 -47 0 -179 c0 -140 3 -177 13 -171 91 54 138 89 142
107 3 12 4 93 3 180 l-3 157 -77 -47z"/>
<path d="M5259 2852 l-46 -26 36 -75 c35 -74 36 -79 35 -191 -1 -63 -6 -134
-12 -158 -15 -63 6 -50 45 29 42 83 56 154 51 254 -5 75 -40 197 -56 194 -4
-1 -28 -13 -53 -27z"/>
<path d="M5135 2781 c-98 -56 -96 -52 -95 -263 0 -253 18 -374 63 -439 17 -24
27 -15 56 54 14 32 24 88 31 175 11 138 13 502 2 502 -4 0 -29 -13 -57 -29z"/>
</g>
</svg>
