<?xml version="1.0" standalone="no"?>
<!DOCTYPE svg PUBLIC "-//W3C//DTD SVG 20010904//EN"
 "http://www.w3.org/TR/2001/REC-SVG-20010904/DTD/svg10.dtd">
<svg version="1.0" xmlns="http://www.w3.org/2000/svg"
 width="1024.000000pt" height="1024.000000pt" viewBox="0 0 1024.000000 1024.000000"
 preserveAspectRatio="xMidYMid meet">
<metadata>
Created by potrace 1.16, written by Peter Selinger 2001-2019
</metadata>
<g transform="translate(0.000000,1024.000000) scale(0.100000,-0.100000)"
fill="#000000" stroke="none">
<path d="M0 5120 l0 -5120 5120 0 5120 0 0 5120 0 5120 -5120 0 -5120 0 0
-5120z m5380 4310 c754 -51 1427 -275 2020 -673 449 -301 853 -709 1145 -1156
367 -561 563 -1121 651 -1866 38 -322 19 -795 -47 -1162 -106 -588 -346 -1170
-672 -1628 -146 -204 -384 -482 -554 -646 -460 -444 -1077 -799 -1692 -974
-414 -117 -769 -163 -1191 -152 -636 16 -1204 157 -1750 433 -403 204 -817
511 -1109 822 -63 67 -119 118 -124 115 -6 -3 -7 -1 -3 6 4 6 -19 41 -57 85
-394 451 -729 1116 -871 1729 -80 343 -109 590 -110 927 -1 328 26 580 99 934
95 458 321 1003 568 1371 224 333 512 653 826 916 337 283 748 521 1161 672
511 188 1170 283 1710 247z"/>
<path d="M4900 9289 c-845 -48 -1613 -339 -2255 -852 -172 -138 -224 -186
-390 -358 -493 -510 -826 -1124 -996 -1835 -145 -608 -142 -1271 7 -1869 153
-609 398 -1106 781 -1585 125 -157 402 -438 553 -564 461 -381 1010 -659 1580
-800 333 -82 573 -110 960 -110 379 0 597 27 940 115 465 120 902 321 1275
588 301 216 606 493 777 706 31 39 78 97 105 130 100 123 154 199 149 212 -3
7 0 12 6 10 17 -3 162 234 256 423 222 442 356 910 409 1425 23 231 23 666 0
850 -102 792 -364 1434 -818 2005 -662 835 -1576 1353 -2614 1484 -206 26
-521 37 -725 25z m670 -214 c789 -89 1556 -444 2124 -982 325 -308 601 -676
795 -1064 359 -714 470 -1470 345 -2338 -76 -528 -279 -1040 -602 -1518 -227
-335 -546 -669 -867 -910 -747 -559 -1654 -828 -2525 -749 -801 73 -1513 362
-2104 855 -722 602 -1190 1416 -1340 2331 -36 221 -47 363 -47 625 1 500 74
906 243 1355 107 283 214 493 379 738 49 73 87 138 83 143 -3 5 -1 8 4 7 6 -2
59 58 118 132 631 787 1570 1294 2555 1379 68 6 140 13 159 15 77 9 553 -4
680 -19z"/>
<path d="M4810 8963 c-395 -37 -719 -114 -1065 -250 -340 -134 -696 -349 -995
-600 -98 -82 -313 -296 -405 -403 -420 -487 -703 -1079 -820 -1715 -74 -406
-78 -871 -9 -1280 104 -620 369 -1218 751 -1695 463 -577 1064 -994 1756
-1219 244 -79 474 -127 763 -157 201 -21 650 -15 814 11 520 81 998 255 1405
510 281 176 579 420 760 621 44 49 82 91 85 94 3 3 30 34 60 70 366 431 638
980 764 1542 102 453 115 1018 36 1486 -158 927 -705 1787 -1490 2342 -193
136 -441 271 -695 378 -331 139 -724 235 -1074 262 -123 9 -556 12 -641 3z
m-45 -360 c20 -118 65 -193 147 -247 93 -62 207 -80 308 -50 129 38 228 154
246 287 l7 47 73 0 74 0 0 -44 c0 -55 -29 -151 -63 -209 -14 -24 -55 -71 -92
-105 l-65 -62 70 -68 c48 -48 79 -89 100 -133 89 -192 47 -426 -102 -564 -57
-53 -177 -119 -238 -132 l-30 -5 -1 -112 c-2 -118 -8 -1686 -9 -1972 l0 -170
-62 -16 c-35 -8 -70 -18 -79 -22 -15 -6 -16 91 -18 1141 l-2 1148 -43 11 c-73
19 -167 76 -236 144 -98 97 -140 202 -140 348 0 136 45 237 149 335 l71 67
-78 77 c-67 67 -82 88 -104 148 -27 75 -44 167 -33 185 3 5 37 10 75 10 l69 0
6 -37z m-738 -967 c92 -42 147 -106 228 -266 62 -123 77 -143 159 -226 50 -49
118 -106 151 -126 66 -39 188 -89 278 -114 l57 -15 0 -75 c0 -71 -1 -74 -24
-74 -38 0 -193 48 -272 84 -106 50 -202 115 -289 197 -98 94 -164 181 -223
298 -74 147 -125 181 -270 181 -101 0 -169 -25 -462 -168 -853 -416 -896 -435
-1015 -436 -54 0 -80 5 -111 21 -46 25 -104 71 -104 83 0 4 24 11 53 15 210
28 441 122 1056 430 424 212 464 226 621 222 91 -2 114 -7 167 -31z m2540 4
c35 -12 235 -107 445 -212 211 -104 437 -214 503 -243 168 -74 374 -141 494
-161 l102 -17 -28 -29 c-35 -36 -137 -88 -175 -88 -108 0 -251 53 -598 223
-118 57 -249 119 -290 136 -41 18 -145 68 -230 113 -201 105 -298 138 -402
138 -136 0 -185 -35 -258 -184 -142 -289 -372 -474 -692 -556 -113 -29 -108
-32 -108 53 l0 74 96 28 c177 52 294 124 414 252 49 51 76 95 128 202 118 241
214 306 437 297 69 -3 119 -11 162 -26z m-2650 -290 c28 -17 53 -63 41 -75 -2
-3 -134 -78 -294 -168 -159 -90 -307 -175 -329 -189 -172 -108 -371 -200 -481
-223 -117 -24 -231 -3 -350 66 -58 33 -62 49 -13 49 73 0 203 57 1069 472 58
28 128 59 155 69 68 25 161 25 202 -1z m2618 -14 c44 -19 177 -80 295 -136
624 -296 738 -345 920 -399 24 -7 24 -8 -20 -36 -76 -48 -175 -78 -260 -78
-156 0 -177 9 -715 309 -419 234 -482 271 -491 285 -8 14 26 60 57 76 45 24
128 15 214 -21z m-2471 -232 c36 -44 44 -60 35 -70 -6 -7 -68 -55 -137 -106
-70 -51 -185 -137 -257 -192 -244 -187 -343 -236 -478 -236 -89 0 -150 17
-219 61 -43 28 -48 34 -32 40 163 65 328 154 317 171 -3 7 -1 8 6 4 10 -6 360
188 441 245 52 36 245 139 261 139 9 0 37 -25 63 -56z m2239 20 c39 -20 158
-87 262 -148 443 -261 553 -322 648 -357 54 -20 56 -23 42 -39 -9 -10 -43 -30
-76 -45 -80 -35 -181 -43 -269 -21 -118 30 -131 38 -616 392 -192 140 -184
128 -132 197 24 31 49 57 56 57 7 0 45 -16 85 -36z m-26 -346 c235 -176 456
-328 480 -328 26 0 12 -18 -26 -33 -70 -29 -162 -40 -227 -28 -104 19 -169 59
-294 175 -124 117 -279 276 -280 288 0 6 110 98 117 98 1 0 104 -77 230 -172z
m-2022 121 c30 -23 55 -45 55 -49 0 -5 -91 -96 -203 -202 -218 -209 -261 -239
-375 -260 -67 -13 -157 -2 -226 27 -35 15 -49 35 -23 35 18 0 153 91 302 204
225 170 388 286 402 286 8 0 38 -19 68 -41z m213 -144 c29 -14 55 -25 59 -25
5 0 14 -4 22 -9 10 -7 -1 -30 -52 -107 -136 -206 -273 -290 -433 -264 -32 5
-61 13 -65 17 -5 5 87 99 204 210 117 111 212 203 213 203 0 0 24 -11 52 -25z
m1578 -192 c109 -106 196 -195 192 -198 -3 -3 -30 -10 -59 -14 -123 -20 -250
29 -346 133 -56 60 -169 223 -161 231 2 3 35 17 74 33 52 21 73 26 85 18 9 -6
105 -97 215 -203z m-1246 72 c65 -14 66 -22 13 -102 -66 -100 -165 -163 -258
-163 -27 0 -55 4 -61 8 -7 4 14 42 60 104 39 54 84 116 99 139 26 38 31 41 60
34 18 -4 57 -13 87 -20z m814 -67 c33 -49 79 -111 103 -138 41 -46 42 -48 20
-54 -120 -32 -272 55 -356 204 l-22 39 23 5 c13 3 50 11 83 19 33 8 67 15 75
15 8 0 42 -40 74 -90z m-1261 -473 c32 -8 77 -25 100 -36 52 -27 322 -206 337
-224 6 -7 13 -35 17 -62 5 -46 3 -51 -22 -71 -35 -28 -75 -28 -220 -1 -60 11
-128 22 -150 26 l-40 6 20 -23 c33 -38 91 -69 188 -101 94 -32 120 -33 237
-13 l35 7 -24 -26 c-36 -40 -101 -61 -157 -52 -115 17 -305 100 -414 181 -62
46 -117 73 -150 74 -33 0 -91 -22 -120 -47 -74 -62 -93 -176 -47 -276 78 -169
353 -330 741 -436 82 -23 160 -41 173 -41 43 0 24 -15 -59 -45 -45 -16 -113
-50 -152 -74 l-71 -44 -110 28 c-410 103 -689 320 -771 600 -35 120 -16 293
42 393 71 122 250 239 404 265 58 10 160 6 213 -8z m1759 0 c172 -35 318 -147
394 -300 36 -72 39 -86 42 -179 5 -119 -12 -198 -64 -296 -96 -183 -283 -332
-543 -434 -166 -66 -360 -108 -714 -156 -308 -42 -492 -126 -560 -255 -31 -57
-31 -183 0 -241 36 -67 115 -145 206 -204 47 -30 86 -58 86 -62 1 -3 -23 -20
-51 -36 -29 -16 -72 -40 -95 -53 l-41 -24 -57 40 c-72 49 -161 137 -205 200
-57 83 -73 138 -74 250 -1 95 1 104 35 175 68 142 219 264 410 331 77 28 161
46 442 94 294 50 639 187 804 320 132 106 182 188 182 300 1 78 -25 135 -78
173 -82 59 -146 50 -269 -41 -78 -57 -167 -99 -300 -143 -118 -39 -160 -41
-219 -14 -61 27 -54 40 21 40 119 0 337 76 386 135 11 13 9 15 -11 15 -13 0
-51 -6 -84 -14 -111 -26 -257 -39 -290 -26 -39 15 -45 26 -45 83 0 42 5 53 31
78 42 39 252 179 314 209 103 50 218 62 347 35z m-429 -1474 c86 -92 123 -205
106 -326 -33 -235 -204 -394 -594 -552 -400 -163 -493 -332 -298 -543 28 -30
63 -62 77 -69 14 -8 26 -18 26 -22 0 -4 -25 -29 -55 -54 l-55 -47 -37 28
c-226 171 -290 429 -152 604 75 95 181 161 457 284 68 30 149 70 180 88 77 45
193 162 222 222 73 153 7 287 -187 377 l-48 22 112 13 c62 7 120 14 130 17 52
13 71 7 116 -42z m-486 -168 c-4 -87 -7 -207 -7 -268 l0 -110 -71 -38 c-39
-22 -73 -36 -77 -32 -4 4 -7 135 -7 293 l0 286 45 12 c25 7 63 12 84 13 l39 1
-6 -157z m290 -787 c74 -79 104 -138 110 -220 16 -198 -111 -360 -402 -514
-165 -87 -238 -152 -272 -245 -22 -60 -11 -207 23 -321 10 -32 -72 49 -104
104 -25 42 -27 52 -27 170 0 112 3 130 24 170 42 79 125 155 260 237 149 90
203 131 195 145 -4 6 -2 8 3 5 14 -9 76 60 103 113 50 98 29 190 -64 278 -28
27 -58 51 -66 54 -8 3 -13 8 -9 11 6 7 150 75 160 76 4 1 34 -28 66 -63z
m-294 -257 l0 -183 -69 -48 c-37 -26 -73 -48 -79 -48 -8 0 -11 61 -11 207 l1
207 65 37 c93 53 94 53 93 -172z m164 -567 c55 -72 72 -242 34 -342 -19 -49
-84 -140 -100 -140 -4 0 -2 33 6 73 8 39 14 110 15 157 1 91 -13 134 -70 209
-14 19 -21 36 -15 38 5 2 25 15 44 28 18 14 38 24 44 22 5 -2 24 -22 42 -45z
m-176 -68 c26 -32 17 -488 -12 -626 -14 -63 -45 -138 -57 -138 -47 0 -102 450
-78 640 6 52 11 59 59 98 57 46 68 50 88 26z"/>
<path d="M5041 8150 c-85 -18 -173 -75 -220 -143 -66 -96 -78 -240 -30 -342
48 -102 172 -195 282 -211 149 -21 310 81 370 234 37 94 18 236 -45 328 -26
39 -117 105 -166 122 -48 16 -141 22 -191 12z"/>
</g>
</svg>
